<svg xmlns="http://www.w3.org/2000/svg" viewBox="0 0 866.5 246.52"><defs><style>.cls-1{fill:#01b1ec;}.cls-2{fill:#2b316b;}.cls-3{fill:#00b5e4;}.cls-4{fill:#292c6f;}.cls-5{fill:#fff;}</style></defs><title>MercadoPago</title><g id="Capa_1" data-name="Capa 1"><path class="cls-1" d="M158.36,185.48c-83.68,0-151.5,43.39-151.5,96.92s67.82,96.92,151.5,96.92,151.5-43.39,151.5-96.92S242,185.48,158.36,185.48Z" transform="translate(-0.75 -169.12)"/><path class="cls-2" d="M858.72,228.82q-8.54-10.69-25.91-10.69t-25.89,10.69a39.24,39.24,0,0,0-8.54,25.26q0,14.82,8.54,25.36T832.81,290q17.38,0,25.91-10.53t8.53-25.36A39.23,39.23,0,0,0,858.72,228.82ZM844.63,269.7c-2.77,3.66-6.71,5.49-11.87,5.49s-9.12-1.83-11.9-5.49-4.17-8.87-4.17-15.62,1.38-12,4.17-15.59,6.75-5.46,11.9-5.46,9.1,1.82,11.87,5.46,4.14,8.84,4.14,15.59S847.38,266,844.63,269.7Z" transform="translate(-0.75 -169.12)"/><path class="cls-2" d="M713.37,222.86a43.23,43.23,0,0,0-19.8-4.4q-17.12,0-24.16,8.93-4.42,5.72-5,14.58h17.06a12.69,12.69,0,0,1,2.51-6.21q2.64-3.09,9-3.09c3.78,0,6.64.51,8.59,1.58s2.92,3,2.92,5.73c0,2.28-1.26,4-3.81,5a28.31,28.31,0,0,1-7.07,1.55l-6,.74c-6.87.87-12.09,2.32-15.62,4.35q-9.69,5.58-9.69,18,0,9.6,6,14.85c4,3.5,9.11,5,15.26,5.25,38.58,1.72,38.14-20.33,38.49-24.92V239.49Q722,227.28,713.37,222.86Zm-9,38.52q-.18,8.87-5.06,12.21A18.44,18.44,0,0,1,688.68,277a9.73,9.73,0,0,1-6.21-2c-1.7-1.34-2.54-3.53-2.54-6.55a8.07,8.07,0,0,1,4.17-7.5,26.5,26.5,0,0,1,8.12-2.41l4-.74A28.76,28.76,0,0,0,701,256.5a17.79,17.79,0,0,0,3.42-1.69Z" transform="translate(-0.75 -169.12)"/><path class="cls-2" d="M625.4,233.58q6.61,0,9.74,4.09a14.94,14.94,0,0,1,2.68,6.8h19q-1.56-14.4-10.07-20.1t-21.89-5.69q-15.72,0-24.66,9.65t-8.94,27q0,15.35,8.09,25T624.62,290q17.16,0,25.9-11.56a28.48,28.48,0,0,0,6.13-15.21h-19a16,16,0,0,1-3.33,8.66c-1.83,2.21-4.91,3.33-9.28,3.33q-9.21,0-12.54-8.41a32.11,32.11,0,0,1-1.83-11.9,35.07,35.07,0,0,1,1.83-12.46C614.85,236.54,619.14,233.58,625.4,233.58Z" transform="translate(-0.75 -169.12)"/><path class="cls-2" d="M586.19,218.68c-39.09,0-36.78,34.62-36.78,34.62v35.15h17.74v-33c0-5.41.69-9.41,2-12q3.64-6.91,14.28-6.92c.53,0,1.24,0,2.1.07s1.85.12,3,.25V218.82l-1.52-.1C586.8,218.7,586.52,218.68,586.19,218.68Z" transform="translate(-0.75 -169.12)"/><path class="cls-2" d="M521,270.08a13,13,0,0,1-2.43,2.69c-2.51,2.06-5.91,2.69-9.92,2.69-3.79,0-6.75-.58-9.44-2.27-4.43-2.72-6.91-7.32-7.18-14.08h49.08a88.83,88.83,0,0,0-.59-13.38,33.17,33.17,0,0,0-5.36-13.93,27.51,27.51,0,0,0-11.65-10,38.42,38.42,0,0,0-15.84-3.15q-14.82,0-24.1,9.34t-9.29,26.85q0,18.69,10.29,27a36.71,36.71,0,0,0,23.74,8.29q16.29,0,25.34-9.83a23.82,23.82,0,0,0,6.16-10.23Zm-23.85-33q3.75-3.84,10.52-3.84a15.44,15.44,0,0,1,10.46,3.63c2.8,2.42,4.37,6,4.68,10.64H492.49A18.37,18.37,0,0,1,497.18,237.05Z" transform="translate(-0.75 -169.12)"/><path class="cls-2" d="M467.19,288.45H451v-40.8c0-3.73-1.23-12.6-11.91-12.6-7.13,0-12.29,5.14-12.29,12.6v40.8H410.56v-40.8c0-3.73-1.1-12.6-11.78-12.6-7.25,0-12.29,5.14-12.29,12.6v40.8H370.28V248c0-16.84,11.17-29.58,28.5-29.58,8.6,0,15.59,3.61,20.14,9.4a25.82,25.82,0,0,1,20.15-9.4c17.68,0,28.12,12.22,28.12,29.58Z" transform="translate(-0.75 -169.12)"/><path class="cls-2" d="M793.11,197.38s-17.87-1.91-17.87,12.44l0,19a21.32,21.32,0,0,0-7.72-7.44,21.73,21.73,0,0,0-10.88-2.7q-13.3,0-21.23,9.9c-5.3,6.59-7.94,16.1-7.94,27.6q0,15,8.07,24.52c5.37,6.36,15.92,9.15,25.29,9.15,32.66,0,32.28-28,32.28-28Zm-21.28,72.46c-2.59,3.72-6.4,5.57-11.37,5.57s-8.71-1.87-11.16-5.6-3.67-9.17-3.67-15.39c0-5.77,1.19-10.6,3.61-14.5s6.18-5.84,11.34-5.84a13.45,13.45,0,0,1,8.9,3.21c4.16,3.55,6.25,9.91,6.25,18.15Q775.73,264.27,771.83,269.84Z" transform="translate(-0.75 -169.12)"/><path class="cls-3" d="M388,401a8.32,8.32,0,0,1-2.62,6.17,8.55,8.55,0,0,1-6.25,2.57h-8.86V348.14c0-12,4-19.49,10.68-24.57,4.4-3.35,11-6.55,23.21-6.55,8.28,0,18,3.21,23.22,9.6,5.88,7.19,8.33,15.19,8.33,25.65q0,16.22-7.82,26.24a24.54,24.54,0,0,1-20.08,9.78A27,27,0,0,1,396.35,386a19.52,19.52,0,0,1-8.34-8Zm29.73-48q0-10-3.92-15.44c-2.61-3.59-6.34-5.41-11.21-5.41a12.81,12.81,0,0,0-11,5.41C389.22,340.86,388,346,388,353c0,6.54,1.3,11.4,3.91,14.67,2.6,3.61,6.34,5.4,11.21,5.4a12.47,12.47,0,0,0,10.69-5.4q3.93-5.4,3.92-14.67" transform="translate(-0.75 -169.12)"/><path class="cls-3" d="M553.26,382.6v-4.35a19.6,19.6,0,0,1-12.42,9,25.41,25.41,0,0,1-15.49-1.3q-7.7-3.07-13.21-11.43t-5.49-22q0-15.91,7.29-25.83c4.87-6.6,12.69-9.61,23.44-9.9s16.76,2.12,22.8,6.69c6.59,5,10.49,12.69,10.49,24.67v36.27c0,11.54-8,32.93-33.29,31.11C521.72,414.4,513,408,508.19,393.42h18.69A14.32,14.32,0,0,0,541.6,400a14,14,0,0,0,7.7-5c2.29-2.75,3.61-6.86,4-12.36m-29.2-29.55q0,17.73,10.25,19.67T549.42,368c1.53-1.87,2.64-4.84,3.32-8.86a37.46,37.46,0,0,0,.13-11.95,23.56,23.56,0,0,0-4.23-10.55q-3.32-4.62-9.73-4.63-8.7,0-11.77,6.42a33.34,33.34,0,0,0-3.08,14.67" transform="translate(-0.75 -169.12)"/><path class="cls-3" d="M491.47,321.68a43.24,43.24,0,0,0-19.79-4.39q-17.15,0-24.17,8.92-4.42,5.71-5,14.58h17.07a12.71,12.71,0,0,1,2.51-6.2q2.64-3.1,9-3.1c3.78,0,6.64.52,8.58,1.58s2.93,3,2.93,5.73c0,2.28-1.27,3.95-3.81,5a28.31,28.31,0,0,1-7.07,1.55l-6,.74c-6.86.87-12.08,2.32-15.61,4.35q-9.71,5.58-9.69,18,0,9.62,6,14.86c4,3.49,9.1,5,15.25,5.24,38.57,1.73,38.14-20.33,38.49-24.91V338.3q0-12.21-8.65-16.62m-9,38.52c-.11,5.92-1.81,10-5.06,12.21a18.45,18.45,0,0,1-10.66,3.35,9.72,9.72,0,0,1-6.21-2c-1.7-1.34-2.55-3.53-2.55-6.55a8.08,8.08,0,0,1,4.17-7.5,26.4,26.4,0,0,1,8.13-2.41l4-.75a28,28,0,0,0,4.72-1.22,17.32,17.32,0,0,0,3.43-1.69Z" transform="translate(-0.75 -169.12)"/><path class="cls-3" d="M637.77,327.27q-8.53-10.69-25.91-10.68T586,327.27a39.24,39.24,0,0,0-8.54,25.26q0,14.82,8.54,25.36t25.89,10.52q17.37,0,25.91-10.52t8.52-25.36a39.22,39.22,0,0,0-8.52-25.26m-14.1,40.87q-4.12,5.5-11.86,5.5t-11.9-5.5q-4.18-5.49-4.17-15.61T599.91,337c2.78-3.65,6.75-5.46,11.9-5.46s9.11,1.81,11.86,5.46,4.14,8.83,4.14,15.58-1.37,12-4.14,15.61" transform="translate(-0.75 -169.12)"/><path class="cls-4" d="M158.33,179.39C71.31,179.39.77,225.68.77,282.45c0,1.47,0,5.52,0,6,0,60.24,61.66,109,157.56,109,96.49,0,157.58-48.77,157.58-109v-6.05C315.89,225.68,245.35,179.39,158.33,179.39Zm0,199.93c-83.68,0-151.5-43.39-151.5-96.92s67.82-96.92,151.5-96.92,151.5,43.39,151.5,96.92S242,379.32,158.36,379.32Z" transform="translate(-0.75 -169.12)"/><path class="cls-5" d="M309.42,274.63l-4.13.61-19-.92-40.38,4.8L209.5,292.38l2.07-53.94,8-22.49,7.57-.46,7.58-2.07,15.84-5.51,10.78-1.14,4.59-2.13-1.83-8-6.43-2.28,2.3-8.28-5.74-5.74L239.11,171H235l-14.46,12.31-16.76,19.74-20,38.11-26.87,61.28L145,278.38l-32.36-70.47-4.43-3.67L84.33,176.39,75.91,171l-5.81,1.68L54.34,184.81l-.31,9-3.21,1.37-4.9,6.43,4.59,4.13,12.86,2.14,30.13,9,1.47.88,2.75,8.53L104.14,248v42l-5.28,1.14L88.08,287.1l-38.33-9.64-19-1.61-24,1.38C6.86,312,24.59,328,24.59,328l7.69-3.61,34.83,6.08,54.25-1.31,28.23-4.77,7.33-9.35,4.57,8.33,28,7.16h41l34.59-4.28,15.3-1.69,10,5.4C312.21,308.09,309.42,274.63,309.42,274.63Z" transform="translate(-0.75 -169.12)"/><path class="cls-4" d="M153.8,317.23c-5.07,7.41-13,8.9-20.89,9.39-3.66.24-7.33.51-11,.79-12.83,1-26.1,2-39.11.92l-1.24-.1c-13.91-1.12-28.3-2.28-41.95-5.36-6.51-1.48-10-.57-13.7,3.57-.45.5-2.83,3-3.28,4.58-.18.62.87,1,1.07,1.15.7.64,4.12-2.74,4.75-3.44,2.86-3.19,5.1-3.73,10.41-2.53,13.89,3.14,28.4,4.31,42.43,5.44l1.24.1c4,.32,8.07.45,12.1.45,9.27,0,18.51-.7,27.54-1.38,3.65-.27,7.3-.55,10.94-.78,8.3-.53,17.59-2.23,23.5-10.87a1.71,1.71,0,0,0-2.82-1.93Z" transform="translate(-0.75 -169.12)"/><path class="cls-4" d="M310.34,273.84a1.72,1.72,0,0,0-2.32-.67c-2.61,1.45-5.13.72-8-.13a19,19,0,0,0-6.61-1.1c-22.94,1.3-46.24,5.86-71.25,13.92-2.78.9-5.55,1.92-8.23,2.9l-2.38.86.21-5.9c.39-10.53.79-21.41.54-32.13-.26-11.24,3.12-21.46,6.91-31.79.86-2.34,1.38-3.35,5-2.76,5.12.85,10.89-1.31,15.34-3.28,6.21-2.76,11.83-5,18.11-4.81,5.17.2,8.5-2.45,9.41-7.38,1.15-6.31-3.86-7.79-7.17-8.77a1.49,1.49,0,0,0-.21,0,35.09,35.09,0,0,0,2.38-6.07,1.7,1.7,0,0,0-.31-1.55c-3.64-4.51-8.51-7.64-13.21-10.67-1.77-1.13-3.59-2.3-5.3-3.51-3.83-2.72-8.47-2.14-13.08,1.65-20.25,16.65-36,38.92-48.25,68.11q-3.26,7.75-6.42,15.57c-5.89,14.39-12,29.23-18.94,43.45l-4.72-10.69q-5.59-12.68-11.21-25.34-2.88-6.44-5.72-12.9c-5.33-12-10.84-24.49-16.55-36.6-6.21-13.19-16.58-22.95-26.61-32.39-3.43-3.23-7-6.57-10.29-10s-8.46-3.23-10.65-1.56c-1.75,1.34-3.69,2.56-5.57,3.75-4,2.52-8.08,5.12-11.15,9.12-2.53,3.3-3,6.88-1.56,9.9-3.27.88-6.56,2.59-7.76,8.17a1.69,1.69,0,0,0,.56,1.65,17.29,17.29,0,0,1,1.35,1.41c1.46,1.63,3.11,3.47,5.27,3.56,6,.26,11.51,2.19,17.34,4.24s12,4.19,18.53,4.39c3.65.11,5.23,1,6.06,3.29.4,1.13.82,2.27,1.23,3.4a98.9,98.9,0,0,1,4.61,15.12c1.51,8.09,1.27,16.47,1,24.57-.26,8.73-.52,17.73,1.39,26.52-2.48.69-4.36-.29-6.47-1.41a21,21,0,0,0-3-1.37C73.79,280.13,53.6,273.8,32,273.8h-.59c-5.65,0-11.3,0-17,0H6.7a1.71,1.71,0,0,0,0,3.42h7.78c5.66,0,11.32,0,17,0H32c21,0,40.92,6.23,59.5,12.62A17.45,17.45,0,0,1,94,291a13.69,13.69,0,0,0,6.43,2A10.07,10.07,0,0,0,104.8,292a1.7,1.7,0,0,0,.92-1.95c-2.16-8.8-1.9-17.67-1.63-27.07.24-8.28.48-16.84-1.1-25.29A100.91,100.91,0,0,0,98.24,222c-.41-1.12-.82-2.25-1.22-3.37-1.69-4.74-5.79-5.46-9.18-5.56-6-.18-11.59-2.14-17.5-4.21S58.52,204.73,52,204.45c-.73,0-2-1.47-2.87-2.42-.31-.34-.6-.67-.89-1,1.05-3.56,3.25-4.32,6.18-4.95a2.4,2.4,0,0,0,.23-.11c.19.17.35.36.56.53,3.75,3,11.48,9.05,20.24,3a42,42,0,0,0,9.68,9.1,1.7,1.7,0,0,0,2.36-.5,1.71,1.71,0,0,0-.5-2.36c-5.23-3.38-8.84-8.18-12.67-13.25-1.29-1.72-2.62-3.49-4-5.18a1.71,1.71,0,1,0-2.64,2.17c1.34,1.63,2.66,3.38,3.93,5.06l1.73,2.29c-5.46,3.64-10.2,1.54-16-3.05-3.91-3.09-2.07-6.72-.62-8.61,2.7-3.52,6.37-5.84,10.26-8.3,1.94-1.23,4-2.5,5.82-3.93.82-.63,4-1,6.13,1.23,3.36,3.47,6.94,6.83,10.4,10.08,9.8,9.23,19.93,18.76,25.86,31.36,5.7,12.08,11.19,24.51,16.51,36.54q2.87,6.45,5.73,12.9,5.64,12.64,11.21,25.33l5,11.37a1.69,1.69,0,0,0,1.41,1,15.48,15.48,0,0,0,.08,10.8,23.22,23.22,0,0,0,11.21,13.09A35.12,35.12,0,0,0,179,329.93l2.45.19c12.92,1,26.16,2.05,39.39,2.05,4.91,0,9.83-.14,14.72-.48,12.23-.85,25.28-2.1,37.77-5.43,6.83-1.82,10.1.06,13.76,4.17.63.7,3.15,3.5,3.84,1.74,1.08-2.74-.66-3.31-1.29-4-4.22-4.75-8.77-7.45-17.18-5.2-12.22,3.26-25.07,4.48-37.14,5.32-17.83,1.25-36-.18-53.61-1.57l-2.44-.19a31.74,31.74,0,0,1-11.42-2.89,19.66,19.66,0,0,1-9.46-11.12c-1.15-3.38-1.13-6.55.05-8.92,7.49-15,13.92-30.77,20.15-46,2.12-5.19,4.24-10.38,6.4-15.55,12-28.65,27.46-50.5,47.27-66.78,2.34-1.93,5.79-3.75,8.94-1.51,1.78,1.26,3.64,2.45,5.43,3.61,4.42,2.84,8.61,5.53,11.83,9.24-1.77,5.55-4.12,9-7.17,10.5-2.82,1.38-6.53,1.25-11.3-.37,2.31-3,4.35-6.1,6.28-9.05a1.71,1.71,0,0,0-2.86-1.87c-4.63,7.09-9.87,15.12-18.2,19.94a1.71,1.71,0,0,0,.85,3.19,1.79,1.79,0,0,0,.86-.23,42.43,42.43,0,0,0,10.77-9.17c6.24,2.34,11.19,2.55,15.11.62a14,14,0,0,0,5.24-4.69,1.63,1.63,0,0,0,.83.59c3.9,1.16,5.32,1.88,4.77,4.89-.6,3.28-2.44,4.67-5.94,4.58-7-.28-13,2.17-19.6,5.1-3.71,1.64-9.12,3.75-13.39,3-5.42-.89-7.41,1.33-8.73,5-3.91,10.66-7.4,21.21-7.12,33,.24,10.61-.16,21.45-.54,31.93q-.15,3.91-.28,7.83a9.11,9.11,0,0,1-.85.71,12.15,12.15,0,0,0-1.11.95,1.7,1.7,0,0,0,0,2.41,1.7,1.7,0,0,0,2.41,0c.23-.22.52-.44.81-.67a8.57,8.57,0,0,0,1.5-1.4,1.51,1.51,0,0,0,.47-.09c1.27-.45,2.54-.91,3.8-1.38,2.65-1,5.39-2,8.11-2.85,24.72-8,47.75-12.47,70.4-13.77a16.65,16.65,0,0,1,5.45,1c3.19.93,6.8,2,10.65-.15A1.72,1.72,0,0,0,310.34,273.84Z" transform="translate(-0.75 -169.12)"/></g></svg>