<svg width="461" height="121" viewBox="0 0 461 121" fill="none" xmlns="http://www.w3.org/2000/svg">
<g filter="url(#filter0_d)">
<path d="M141.67 72.1C141.67 78.16 139.45 82.93 135.01 86.41C130.57 89.83 124.9 91.54 118 91.54C112.54 91.54 107.26 90.04 102.16 87.04C99.64 85.48 97.57 83.29 95.95 80.47C94.33 77.59 93.52 74.32 93.52 70.66L104.86 70.12C104.86 73.36 106.24 75.88 109 77.68C111.76 79.48 114.82 80.38 118.18 80.38C125.68 80.38 129.43 77.74 129.43 72.46C129.43 68.14 126.88 65.59 121.78 64.81L111.34 63.73C106.12 62.95 101.98 61.09 98.92 58.15C95.86 55.21 94.33 50.98 94.33 45.46C94.33 39.94 96.52 35.38 100.9 31.78C105.28 28.18 110.8 26.38 117.46 26.38C124.18 26.38 129.58 28.09 133.66 31.51C137.74 34.87 139.78 39.22 139.78 44.56L128.62 45.1C127.6 39.88 124.09 37.27 118.09 37.27C114.43 37.27 111.55 38.05 109.45 39.61C107.41 41.17 106.39 43.03 106.39 45.19C106.39 47.29 107.14 48.97 108.64 50.23C110.14 51.43 112 52.18 114.22 52.48L124.48 53.56C135.94 55.12 141.67 61.3 141.67 72.1ZM180.534 57.07L202.584 91H188.004L172.884 66.79L164.154 78.49V91H151.644V26.92H164.154V62.74L188.364 26.92H200.964L180.534 57.07ZM260.097 91H247.047L243.447 79.93H221.937L218.427 91H205.377L225.897 32.32C226.797 30.28 227.787 28.87 228.867 28.09C230.007 27.31 231.387 26.92 233.007 26.92C234.627 26.92 235.917 27.28 236.877 28C237.897 28.72 238.797 30.16 239.577 32.32L260.097 91ZM240.567 69.4L233.007 44.02L225.087 69.4H240.567ZM308.4 91H289.32C282.12 91 276.9 89.62 273.66 86.86C270.48 84.04 268.89 79.48 268.89 73.18V26.92H281.4V73.18C281.4 75.7 281.97 77.44 283.11 78.4C284.25 79.36 286.32 79.84 289.32 79.84H308.4V91ZM366.972 91H353.922L350.322 79.93H328.812L325.302 91H312.252L332.772 32.32C333.672 30.28 334.662 28.87 335.742 28.09C336.882 27.31 338.262 26.92 339.882 26.92C341.502 26.92 342.792 27.28 343.752 28C344.772 28.72 345.672 30.16 346.452 32.32L366.972 91ZM347.442 69.4L339.882 44.02L331.962 69.4H347.442Z" fill="white"/>
<path d="M39.4413 47.2003L28.8347 49.5061L28.3735 36.1326L41.7471 36.5937L39.4413 47.2003Z" fill="#009B3A"/>
<path d="M31.6016 61.4962L30.2182 56.4235L44.9752 52.7342L48.2033 38.4383L53.7372 39.3606L49.5868 57.3458L31.6016 61.4962Z" fill="#009B3A"/>
<path d="M38.0578 72.5639L34.8297 67.4912L55.1206 62.8796L59.7322 42.5887L64.8049 45.8168L59.7322 67.4912L38.0578 72.5639Z" fill="#009B3A"/>
<path d="M65.2661 73.0251L44.514 78.0978C53.6722 81.346 59.3689 81.6218 70.8 78.559C73.8628 67.1279 73.587 61.4312 70.3388 52.273L65.2661 73.0251Z" fill="#009B3A"/>
<path d="M420.833 47.4413L418.527 36.8347L431.9 36.3735L431.439 49.7471L420.833 47.4413Z" fill="#009B3A"/>
<path d="M406.537 39.6016L411.61 38.2182L415.299 52.9752L429.595 56.2033L428.672 61.7372L410.687 57.5868L406.537 39.6016Z" fill="#009B3A"/>
<path d="M395.469 46.0578L400.542 42.8297L405.153 63.1206L425.444 67.7322L422.216 72.8049L400.542 67.7322L395.469 46.0578Z" fill="#009B3A"/>
<path d="M395.008 73.2661L389.935 52.514C386.687 61.6722 386.411 67.3689 389.474 78.8C400.905 81.8628 406.602 81.587 415.76 78.3388L395.008 73.2661Z" fill="#009B3A"/>
</g>
<defs>
<filter id="filter0_d" x="0" y="12.759" width="460.274" height="99.4145" filterUnits="userSpaceOnUse" color-interpolation-filters="sRGB">
<feFlood flood-opacity="0" result="BackgroundImageFix"/>
<feColorMatrix in="SourceAlpha" type="matrix" values="0 0 0 0 0 0 0 0 0 0 0 0 0 0 0 0 0 0 127 0"/>
<feOffset dy="5"/>
<feGaussianBlur stdDeviation="7.5"/>
<feColorMatrix type="matrix" values="0 0 0 0 0 0 0 0 0 0 0 0 0 0 0 0 0 0 0.5 0"/>
<feBlend mode="normal" in2="BackgroundImageFix" result="effect1_dropShadow"/>
<feBlend mode="normal" in="SourceGraphic" in2="effect1_dropShadow" result="shape"/>
</filter>
</defs>
</svg>
