<svg width="206" height="54" viewBox="0 0 206 54" fill="none" xmlns="http://www.w3.org/2000/svg">
<path d="M63.52 32.6C63.52 35.2933 62.5333 37.4133 60.56 38.96C58.5867 40.48 56.0667 41.24 53 41.24C50.5733 41.24 48.2267 40.5733 45.96 39.24C44.84 38.5467 43.92 37.5733 43.2 36.32C42.48 35.04 42.12 33.5867 42.12 31.96L47.16 31.72C47.16 33.16 47.7733 34.28 49 35.08C50.2267 35.88 51.5867 36.28 53.08 36.28C56.4133 36.28 58.08 35.1067 58.08 32.76C58.08 30.84 56.9467 29.7067 54.68 29.36L50.04 28.88C47.72 28.5333 45.88 27.7067 44.52 26.4C43.16 25.0933 42.48 23.2133 42.48 20.76C42.48 18.3067 43.4533 16.28 45.4 14.68C47.3467 13.08 49.8 12.28 52.76 12.28C55.7467 12.28 58.1467 13.04 59.96 14.56C61.7733 16.0533 62.68 17.9867 62.68 20.36L57.72 20.6C57.2667 18.28 55.7067 17.12 53.04 17.12C51.4133 17.12 50.1333 17.4667 49.2 18.16C48.2933 18.8533 47.84 19.68 47.84 20.64C47.84 21.5733 48.1733 22.32 48.84 22.88C49.5067 23.4133 50.3333 23.7467 51.32 23.88L55.88 24.36C60.9733 25.0533 63.52 27.8 63.52 32.6ZM80.7928 25.92L90.5928 41H84.1128L77.3928 30.24L73.5128 35.44V41H67.9528V12.52H73.5128V28.44L84.2728 12.52H89.8728L80.7928 25.92ZM116.154 41H110.354L108.754 36.08H99.1944L97.6344 41H91.8344L100.954 14.92C101.354 14.0133 101.794 13.3867 102.274 13.04C102.781 12.6933 103.394 12.52 104.114 12.52C104.834 12.52 105.408 12.68 105.834 13C106.288 13.32 106.688 13.96 107.034 14.92L116.154 41ZM107.474 31.4L104.114 20.12L100.594 31.4H107.474ZM137.622 41H129.142C125.942 41 123.622 40.3867 122.182 39.16C120.769 37.9067 120.062 35.88 120.062 33.08V12.52H125.622V33.08C125.622 34.2 125.876 34.9733 126.382 35.4C126.889 35.8267 127.809 36.04 129.142 36.04H137.622V41ZM163.654 41H157.854L156.254 36.08H146.694L145.134 41H139.334L148.454 14.92C148.854 14.0133 149.294 13.3867 149.774 13.04C150.281 12.6933 150.894 12.52 151.614 12.52C152.334 12.52 152.908 12.68 153.334 13C153.788 13.32 154.188 13.96 154.534 14.92L163.654 41ZM154.974 31.4L151.614 20.12L148.094 31.4H154.974Z" fill="#1A1A1A"/>
<path d="M13.1899 21.1899L7.46597 22.4342L7.2171 15.2171L14.4342 15.466L13.1899 21.1899Z" fill="#009B3A"/>
<path d="M8.95916 28.9047L8.21256 26.1672L16.1763 24.1763L17.9183 16.4614L20.9047 16.9592L18.6649 26.6649L8.95916 28.9047Z" fill="#009B3A"/>
<path d="M12.4433 34.8775L10.7012 32.14L21.6513 29.6513L24.14 18.7012L26.8775 20.4433L24.14 32.14L12.4433 34.8775Z" fill="#009B3A"/>
<path d="M27.1263 35.1263L15.9274 37.8639C20.8697 39.6168 23.9439 39.7656 30.1127 38.1127C31.7656 31.9439 31.6168 28.8697 29.8639 23.9274L27.1263 35.1263Z" fill="#009B3A"/>
<path d="M192.14 21.1899L190.896 15.466L198.113 15.2171L197.864 22.4342L192.14 21.1899Z" fill="#009B3A"/>
<path d="M184.425 16.9592L187.163 16.2126L189.154 24.1763L196.868 25.9183L196.371 28.9047L186.665 26.6649L184.425 16.9592Z" fill="#009B3A"/>
<path d="M178.452 20.4433L181.19 18.7012L183.679 29.6513L194.629 32.14L192.887 34.8775L181.19 32.14L178.452 20.4433Z" fill="#009B3A"/>
<path d="M178.203 35.1263L175.466 23.9274C173.713 28.8697 173.564 31.9439 175.217 38.1127C181.386 39.7656 184.46 39.6168 189.402 37.8639L178.203 35.1263Z" fill="#009B3A"/>
</svg>
